HIERARCHY
ROOT hip
{
	OFFSET 0.000000 0.000000 0.000000 
	CHANNELS 6 Xposition Yposition Zposition Xrotation Zrotation Yrotation
	JOINT abdomen
	{
		OFFSET 0.000000 3.402643 0.000000 
		CHANNELS 3 Xrotation Zrotation Yrotation
		JOINT chest
		{
			OFFSET 0.000000 8.438565 -0.680529 
			CHANNELS 3 Xrotation Zrotation Yrotation
			JOINT neck
			{
				OFFSET 0.000000 10.207942 -0.272212 
				CHANNELS 3 Xrotation Zrotation Yrotation
				JOINT head
				{
					OFFSET 0.000000 3.130431 0.000000 
					CHANNELS 3 Xrotation Zrotation Yrotation
					End Site
					{
						OFFSET 0.000000 3.130435 0.000000 
					}
				}
			}
			JOINT lCollar
			{
				OFFSET 3.470700 6.669187 -0.816635 
				CHANNELS 3 Yrotation Zrotation Xrotation
				JOINT lShldr
				{
					OFFSET 3.198488 0.000000 0.000000 
					CHANNELS 3 Zrotation Yrotation Xrotation
					JOINT lForeArm
					{
						OFFSET 10.139888 0.000000 0.000000 
						CHANNELS 3 Yrotation Zrotation Xrotation
						JOINT lHand
						{
							OFFSET 8.370511 0.000000 0.000000 
							CHANNELS 3 Zrotation Yrotation Xrotation
							End Site
							{
								OFFSET 4.083176 0.000000 0.000000 
							}
						}
					}
				}
			}
			JOINT rCollar
			{
				OFFSET -3.470700 6.669187 -0.816635 
				CHANNELS 3 Yrotation Zrotation Xrotation
				JOINT rShldr
				{
					OFFSET -3.198488 0.000000 0.000000 
					CHANNELS 3 Zrotation Yrotation Xrotation
					JOINT rForeArm
					{
						OFFSET -10.139888 0.000000 0.000000 
						CHANNELS 3 Yrotation Zrotation Xrotation
						JOINT rHand
						{
							OFFSET -8.370511 0.000000 0.000000 
							CHANNELS 3 Zrotation Yrotation Xrotation
							End Site
							{
								OFFSET -4.083176 0.000000 0.000000 
							}
						}
					}
				}
			}
		}
	}
	JOINT lThigh
	{
		OFFSET 5.308129 -1.633274 1.361059 
		CHANNELS 3 Xrotation Zrotation Yrotation
		JOINT lShin
		{
			OFFSET -2.041588 -20.007561 0.000000 
			CHANNELS 3 Xrotation Zrotation Yrotation
			JOINT lFoot
			{
				OFFSET 0.000000 -19.190928 -1.224953 
				CHANNELS 3 Xrotation Yrotation Zrotation
				End Site
				{
					OFFSET 0.000000 -2.449906 4.627600 
				}
			}
		}
	}
	JOINT rThigh
	{
		OFFSET -5.308129 -1.633274 1.361059 
		CHANNELS 3 Xrotation Zrotation Yrotation
		JOINT rShin
		{
			OFFSET 2.041588 -20.007561 0.000000 
			CHANNELS 3 Xrotation Zrotation Yrotation
			JOINT rFoot
			{
				OFFSET 0.000000 -19.190928 -1.224953 
				CHANNELS 3 Xrotation Yrotation Zrotation
				End Site
				{
					OFFSET 0.000000 -2.449906 4.627600 
				}
			}
		}
	}
}
MOTION
Frames: 13
Frame Time: 0.033333
-20.293266 52.895912 1.545938 -0.117215 1.240232 82.741600 0.000000 0.000000 0.000000 -7.669062 4.384414 -1.771196 0.345852 -1.405635 -3.230774 27.394390 -6.835886 -2.017342 17.158382 13.056916 4.795351 -80.764183 -16.920305 88.010468 -26.075413 -1.111905 12.257925 0.927766 -3.605124 -1.206573 -12.052959 -15.152285 8.807633 79.632828 17.049570 64.643272 29.545483 0.382793 19.923977 -10.663774 0.832277 -1.683286 2.655717 0.097597 22.800436 9.601402 -2.468940 -6.378271 -9.603656 0.283729 -2.086593 -14.703032 -15.704945 -16.496809 60.479401 -0.676204 -14.742208 12.997524 6.615447 -10.661829 
-19.386896 52.924351 1.311137 -0.283223 0.683585 81.744667 0.000000 0.000000 0.000000 -8.229128 5.325776 -2.330965 0.690842 -1.656100 -2.313943 27.728237 -7.275271 -2.153865 17.288191 12.992776 3.601219 -81.093773 -15.907289 90.262306 -27.686390 -0.557022 13.122697 0.021849 -3.852345 -1.145217 -11.760510 -15.679579 7.935261 79.311195 16.039946 64.258713 29.797808 0.362845 19.990385 -10.846630 0.775234 -1.685420 4.160334 -0.594647 23.593094 7.579529 -2.448613 -6.122060 -9.623415 0.276115 -2.068772 -16.814568 -15.592585 -16.527773 59.365696 -0.558432 -10.427078 8.964135 6.362541 -9.352885 
-18.470457 52.939758 1.090194 -0.458990 0.283194 80.700859 0.000000 0.000000 0.000000 -8.614896 6.180033 -2.701793 0.999548 -1.751080 -1.533068 27.905090 -7.692384 -2.274543 17.256945 12.957438 2.789355 -81.432358 -15.136239 91.539482 -29.118603 -0.355391 13.503179 -0.035751 -3.868732 -1.143878 -11.623604 -16.053106 7.239275 78.857399 15.070613 63.401054 30.148117 0.349822 20.044346 -11.022674 0.730075 -1.689547 5.941606 -1.413279 24.423016 5.252055 -2.390275 -5.915926 -9.368690 0.267048 -2.071906 -17.798754 -15.325542 -17.936712 56.281597 -0.284283 -7.255923 5.357948 6.309958 -10.197886 
-17.581329 52.972160 0.890920 -0.488283 0.156244 79.783821 0.000000 0.000000 0.000000 -8.347710 6.657872 -2.995222 0.919236 -1.647414 -0.845421 27.921133 -8.024169 -2.372881 17.266537 13.003961 2.708738 -81.830757 -15.401629 92.005699 -30.438339 -0.417278 13.241278 0.266450 -3.792863 -1.158668 -11.735587 -16.149723 7.246951 78.410583 15.111942 62.247387 30.372164 0.333247 20.067324 -10.906829 0.759598 -1.693115 8.521669 -2.731627 24.739098 1.305814 -2.259778 -5.385827 -7.977351 0.251351 -2.373030 -17.849398 -14.957163 -20.196043 51.649292 0.107449 -5.392042 1.483153 6.078389 -9.593773 
-16.898169 52.987213 0.729380 -0.751953 -0.058589 78.750771 0.000000 0.000000 0.000000 -8.255080 7.519840 -3.284602 0.947716 -1.711136 -0.173054 27.855247 -8.286137 -2.452609 17.263823 12.961875 2.120870 -84.339294 -12.132230 86.765823 -25.730400 2.825978 19.568865 -6.306028 -5.571182 -0.627788 -11.747141 -16.477583 6.836659 78.130714 14.560258 61.075142 30.506657 0.318287 20.161333 -11.080601 0.715331 -1.687741 11.442262 -4.079118 25.107397 -3.551504 -2.071315 -4.708704 -6.162003 0.188947 -2.486042 -17.245466 -13.660912 -23.565672 44.958614 0.559326 -4.695342 -0.671109 6.036386 -9.962672 
-15.980947 53.027248 0.621434 -0.908203 -0.029293 77.578583 0.000000 0.000000 0.000000 -7.827657 7.847050 -3.174149 0.879294 -1.419384 0.276619 27.748804 -8.522655 -2.526119 16.987612 13.079527 2.125369 -87.176857 -9.136755 81.603035 -20.925819 7.624714 25.645123 -12.842921 -7.265938 0.108080 -11.933047 -16.367765 6.626586 77.943756 14.217113 58.754921 30.132940 0.797308 19.109838 -12.939760 0.175654 -1.705152 12.420211 -4.226686 25.000000 -3.542190 -2.062772 -4.416444 -6.336935 0.281893 -3.320739 -16.238115 -12.046597 -25.929407 37.149090 1.034330 -2.859576 -0.581191 5.931132 -8.641106 
-15.032622 53.049927 0.598710 -0.966800 0.156228 76.374313 0.000000 0.000000 0.000000 -7.479563 7.679038 -3.083954 1.084884 -0.960079 0.732662 27.526279 -8.617273 -2.550296 16.768499 13.488247 1.569719 -83.402733 -13.691862 91.580170 -32.320736 -0.264268 13.468627 0.012630 -3.854939 -1.146571 -11.952547 -16.172316 5.473870 78.025414 12.606688 57.615582 29.903982 1.046944 18.514641 -13.596729 -0.017096 -1.702632 13.581285 -4.655566 26.281290 -3.554845 -2.064521 -4.464288 -6.519657 0.365964 -4.053421 -14.188882 -9.813314 -28.101810 27.422792 1.513095 0.349463 0.780998 5.834565 -7.100500 
-14.765837 53.050198 0.628439 -1.044924 0.117168 75.583801 0.000000 0.000000 0.000000 -7.280524 7.566176 -3.345875 1.173762 -0.711729 1.150046 27.212509 -8.670195 -2.564585 16.629963 13.736194 1.110366 -84.006607 -12.967157 90.963554 -32.135696 -0.295257 13.410722 0.190409 -3.814394 -1.160126 -11.952012 -16.120329 4.766588 78.156921 11.448628 57.963123 29.984762 0.781309 19.180716 -13.076696 0.141597 -1.706082 14.490091 -4.851450 27.093956 -3.543363 -2.053402 -4.328929 -6.507488 0.434742 -4.855135 -11.394338 -6.821871 -30.174051 15.497503 1.965382 3.814057 4.101673 5.694742 -4.173458 
-13.854053 53.033260 0.706931 -0.898439 -0.087880 75.460358 0.000000 0.000000 0.000000 -7.289968 6.936220 -3.736061 1.173514 -0.300659 1.100770 26.862024 -8.780593 -2.600377 16.162964 14.126687 1.144777 -84.301079 -13.153971 90.909843 -32.361336 -0.350270 13.248468 0.402388 -3.754195 -1.167872 -12.122129 -15.745910 4.560159 78.175064 10.655417 57.423260 30.029699 0.857261 18.941111 -13.113798 0.122282 -1.707369 15.155149 -4.881707 26.695513 -3.530669 -2.051494 -4.046163 -6.023742 0.527346 -5.852532 -5.935853 -1.931033 -30.597496 -3.561411 2.029169 4.876465 12.175585 5.527058 0.385246 
-12.904447 52.973724 0.845487 -0.742188 -0.009765 75.605598 0.000000 0.000000 0.000000 -7.068915 5.902380 -3.962157 1.211508 0.322437 0.651736 26.518976 -9.039713 -2.674160 15.443678 14.700304 1.433635 -84.335251 -14.001884 91.329201 -32.890564 -0.452194 12.819818 0.731898 -3.660712 -1.186519 -12.455897 -15.105782 4.163104 78.010796 9.397614 57.820576 30.637407 0.756920 19.248699 -13.424868 0.035123 -1.710212 16.139080 -4.733239 24.756584 -3.481365 -2.003029 -2.692699 -5.583820 0.618340 -7.104162 -7.859575 -1.755489 -31.685240 -3.629113 2.087087 6.717146 10.920167 5.106635 3.926741 
-11.694892 52.884808 1.031655 -0.527357 0.400374 75.963112 0.000000 0.000000 0.000000 -6.484424 4.444158 -4.049523 1.162377 1.208765 -0.052284 26.298307 -9.367863 -2.777532 14.730109 15.511262 2.042726 -84.496292 -15.279223 91.335289 -32.819401 -0.293768 13.349138 0.266450 -3.792863 -1.158668 -12.983325 -14.144178 3.732477 77.724251 8.095295 57.418697 31.298265 1.019356 18.126448 -13.290223 0.078489 -1.709775 17.562977 -4.800281 23.953951 -3.473747 -2.013494 -2.428791 -5.270309 0.691844 -7.799897 -8.659548 -1.246577 -34.565685 -3.743981 2.153263 9.395382 6.915769 4.551343 7.283966 
-10.652105 52.762955 1.260896 -0.312525 0.722646 76.529259 0.000000 0.000000 0.000000 -6.425431 3.095704 -4.439744 1.466145 1.962458 -0.526594 26.439789 -9.602967 -2.848801 14.200461 16.516489 1.532757 -84.761765 -15.397562 92.121292 -33.063599 -0.292426 13.114825 -0.425055 -3.980099 -1.112447 -13.328753 -13.490936 2.486186 77.463776 5.777029 57.432281 32.251465 1.335581 16.430164 -13.104506 0.124527 -1.709333 19.530802 -4.813909 22.251398 -4.623809 -1.965239 -1.761837 -4.261211 0.794708 -9.240009 -8.786810 -0.534431 -37.100624 -3.803507 2.202581 11.207744 0.666777 3.997778 10.148400 
-9.499120 52.604118 1.564085 -0.410206 0.888649 77.005356 0.000000 0.000000 0.000000 -7.397674 2.120887 -4.728239 2.631327 2.699087 -0.920917 27.041012 -9.710025 -2.876497 13.457546 17.807827 -0.981447 -85.146187 -12.760412 93.300674 -33.592712 -0.394706 12.757450 0.088668 -3.833375 -1.145182 -13.522898 -13.152545 -0.537902 77.332634 1.056735 57.930004 33.109425 1.547495 14.809038 -12.554638 0.291771 -1.708043 18.133728 -3.007167 21.619226 1.841060 -2.121946 -2.116460 -7.303341 1.025066 -10.375385 -8.514850 0.381396 -38.059658 -3.842683 2.231838 11.898071 -3.369277 3.492267 13.020207 
